<?xml version="1.0" encoding="UTF-8" standalone="no"?>
<svg width="1113px" height="260px" viewBox="0 0 1113 260" version="1.1" xmlns="http://www.w3.org/2000/svg" xmlns:xlink="http://www.w3.org/1999/xlink" xmlns:sketch="http://www.bohemiancoding.com/sketch/ns">
    <!-- Generator: Sketch 3.5.1 (25234) - http://www.bohemiancoding.com/sketch -->
    <title>musikore Logo</title>
    <desc>Created with Sketch.</desc>
    <defs></defs>
    <g id="musikore-Logo" stroke="none" stroke-width="1" fill="none" fill-rule="evenodd" sketch:type="MSPage">
        <g sketch:type="MSArtboardGroup" id="musikore">
            <g sketch:type="MSLayerGroup" transform="translate(23.000000, 14.000000)">
                <g id="Layer_1" sketch:type="MSShapeGroup">
                    <g id="Group">
                        <path d="M46.15,89.32 C54.048,84.023 63.4,81.37 74.2,81.37 C83.8,81.37 92.448,83.573 100.15,87.97 C107.847,92.371 113.899,99.67 118.3,109.87 C123.1,100.673 129.799,93.623 138.4,88.72 C146.997,83.822 156.4,81.37 166.6,81.37 C175.797,81.37 183.7,82.922 190.3,86.02 C196.9,89.124 202.399,93.272 206.8,98.47 C211.197,103.673 214.45,109.772 216.55,116.77 C218.65,123.773 219.7,131.273 219.7,139.27 L219.7,227.47 L191.5,227.47 L191.5,148.57 C191.5,142.771 190.999,137.273 190,132.07 C188.997,126.871 187.3,122.273 184.9,118.27 C182.5,114.272 179.298,111.07 175.3,108.67 C171.297,106.27 166.197,105.07 160,105.07 C153.597,105.07 148.099,106.42 143.5,109.12 C138.897,111.82 135.147,115.322 132.25,119.62 C129.349,123.923 127.249,128.77 125.95,134.17 C124.647,139.57 124,145.072 124,150.67 L124,227.47 L95.8,227.47 L95.8,142.869 C95.8,137.273 95.299,132.173 94.3,127.57 C93.297,122.971 91.6,119.02 89.2,115.72 C86.8,112.42 83.697,109.823 79.9,107.92 C76.099,106.022 71.397,105.07 65.8,105.07 C55.399,105.07 46.75,109.321 39.85,117.82 C32.95,126.323 29.5,137.672 29.5,151.869 L29.5,227.47 L1.3,227.47 L1.3,115.87 C1.3,112.073 1.197,107.17 1,101.17 C0.798,95.17 0.499,89.873 0.1,85.27 L26.8,85.27 C27.198,88.87 27.499,92.92 27.7,97.42 C27.897,101.92 28,105.67 28,108.67 L28.9,108.67 C32.5,101.071 38.247,94.621 46.15,89.32 L46.15,89.32 Z" id="Shape" fill="#03A9F4"></path>
                        <path d="M345.098,227.47 C344.695,223.869 344.395,219.821 344.198,215.321 C343.996,210.821 343.898,207.071 343.898,204.071 L343.298,204.071 C339.698,211.674 333.646,218.124 325.148,223.421 C316.645,228.718 307.195,231.37 296.798,231.37 C287.596,231.37 279.646,229.87 272.948,226.87 C266.245,223.87 260.746,219.722 256.448,214.421 C252.145,209.124 248.948,202.974 246.848,195.971 C244.748,188.972 243.698,181.472 243.698,173.471 L243.698,85.271 L271.898,85.271 L271.898,163.871 C271.898,169.675 272.348,175.225 273.248,180.521 C274.148,185.823 275.798,190.472 278.198,194.471 C280.598,198.474 283.898,201.671 288.098,204.072 C292.298,206.471 297.698,207.672 304.298,207.672 C315.698,207.672 324.895,203.425 331.898,194.922 C338.897,186.424 342.398,175.074 342.398,160.871 L342.398,85.271 L370.598,85.271 L370.598,196.871 C370.598,200.674 370.697,205.572 370.898,211.572 C371.095,217.572 371.395,222.873 371.798,227.471 L345.098,227.471 L345.098,227.47 Z" id="Shape" fill="#03A9F4"></path>
                        <path d="M473.794,121.269 C470.592,116.071 466.092,111.819 460.294,108.519 C454.491,105.219 447.994,103.569 440.794,103.569 C437.592,103.569 434.391,103.921 431.194,104.619 C427.992,105.322 425.142,106.419 422.644,107.919 C420.141,109.419 418.144,111.322 416.644,113.619 C415.144,115.921 414.394,118.771 414.394,122.169 C414.394,128.169 417.094,132.622 422.494,135.519 C427.894,138.421 435.994,141.07 446.794,143.469 C453.591,145.072 459.891,146.97 465.694,149.169 C471.492,151.372 476.541,154.118 480.844,157.419 C485.142,160.719 488.494,164.671 490.894,169.269 C493.294,173.873 494.494,179.273 494.494,185.469 C494.494,193.868 492.891,200.97 489.694,206.769 C486.492,212.572 482.241,217.321 476.944,221.019 C471.642,224.722 465.591,227.371 458.794,228.969 C451.992,230.568 444.994,231.368 437.794,231.368 C426.994,231.368 416.442,229.268 406.144,225.069 C395.841,220.868 387.29,214.469 380.494,205.868 L400.594,188.768 C404.391,194.37 409.641,199.071 416.344,202.868 C423.043,206.671 430.392,208.569 438.394,208.569 C441.994,208.569 445.444,208.221 448.744,207.518 C452.044,206.82 455.044,205.671 457.744,204.069 C460.444,202.469 462.591,200.37 464.194,197.768 C465.793,195.171 466.594,191.872 466.594,187.868 C466.594,181.268 463.444,176.37 457.144,173.169 C450.844,169.972 441.591,166.972 429.394,164.169 C424.594,162.969 419.742,161.521 414.844,159.819 C409.941,158.122 405.492,155.768 401.494,152.768 C397.491,149.768 394.243,146.018 391.744,141.518 C389.241,137.018 387.994,131.468 387.994,124.868 C387.994,117.27 389.541,110.721 392.644,105.218 C395.742,99.719 399.792,95.219 404.794,91.718 C409.791,88.221 415.491,85.619 421.894,83.918 C428.292,82.221 434.892,81.368 441.694,81.368 C451.894,81.368 461.742,83.369 471.244,87.368 C480.741,91.371 488.091,97.17 493.294,104.768 L473.794,121.269 L473.794,121.269 Z" id="Shape" fill="#03A9F4"></path>
                        <path d="M540.689,33.97 C540.689,39.173 538.851,43.471 535.181,46.87 C531.511,50.273 527.095,51.97 521.939,51.97 C516.783,51.97 512.419,50.221 508.847,46.72 C505.275,43.223 503.489,38.971 503.489,33.97 C503.489,28.772 505.275,24.422 508.847,20.92 C512.419,17.423 516.783,15.67 521.939,15.67 C527.095,15.67 531.511,17.423 535.181,20.92 C538.851,24.421 540.689,28.771 540.689,33.97 L540.689,33.97 Z M536.189,227.47 L507.989,227.47 L507.989,85.27 L536.189,85.27 L536.189,227.47 L536.189,227.47 Z" id="Shape" fill="#03A9F4"></path>
                        <path d="M591.685,147.07 L592.585,147.07 L652.285,85.269 L690.085,85.269 L623.484,149.769 L695.785,227.469 L656.785,227.469 L592.585,153.669 L591.685,153.669 L591.685,227.469 L563.485,227.469 L563.485,0.67 L591.685,0.67 L591.685,147.07 L591.685,147.07 Z" id="Shape" fill="#FF5252"></path>
                        <path d="M836.486,156.07 C836.486,167.071 834.537,177.173 830.636,186.369 C826.736,195.571 821.336,203.521 814.436,210.22 C807.537,216.923 799.384,222.121 789.986,225.821 C780.584,229.518 770.486,231.37 759.686,231.37 C748.886,231.37 738.785,229.518 729.386,225.821 C719.983,222.122 711.883,216.924 705.086,210.22 C698.284,203.522 692.936,195.572 689.036,186.369 C685.136,177.173 683.185,167.071 683.185,156.07 C683.185,145.072 685.135,135.023 689.036,125.92 C692.935,116.821 698.284,108.97 705.086,102.37 C711.883,95.77 719.982,90.623 729.386,86.92 C738.784,83.221 748.886,81.37 759.686,81.37 C770.486,81.37 780.583,83.222 789.986,86.92 C799.384,90.623 807.537,95.77 814.436,102.37 C821.336,108.97 826.736,116.822 830.636,125.92 C834.537,135.023 836.486,145.072 836.486,156.07 L836.486,156.07 Z M807.086,156.22 C807.086,149.442 806.031,142.959 803.927,136.776 C801.818,130.598 798.761,125.166 794.748,120.478 C790.735,115.79 785.767,112.055 779.852,109.261 C773.931,106.468 767.158,105.071 759.537,105.071 C751.91,105.071 745.137,106.468 739.221,109.261 C733.301,112.055 728.337,115.791 724.325,120.478 C720.313,125.165 717.252,130.598 715.147,136.776 C713.038,142.96 711.987,149.442 711.987,156.22 C711.987,163.002 713.038,169.486 715.147,175.664 C717.251,181.846 720.312,187.33 724.325,192.117 C728.338,196.902 733.302,200.689 739.221,203.484 C745.137,206.277 751.91,207.67 759.537,207.67 C767.158,207.67 773.932,206.277 779.852,203.484 C785.767,200.689 790.736,196.902 794.748,192.117 C798.761,187.33 801.817,181.846 803.927,175.664 C806.032,169.485 807.086,163.002 807.086,156.22 L807.086,156.22 Z" id="Shape" fill="#03A9F4"></path>
                        <path d="M852.682,101.17 C852.48,95.17 852.18,89.873 851.782,85.27 L878.482,85.27 C878.88,88.87 879.18,93.023 879.382,97.72 C879.578,102.422 879.682,106.27 879.682,109.27 L880.581,109.27 C884.58,100.87 890.43,94.12 898.132,89.02 C905.828,83.92 914.482,81.37 924.081,81.37 C928.478,81.37 932.182,81.773 935.182,82.57 L933.982,108.67 C929.979,107.671 925.68,107.17 921.082,107.17 C914.281,107.17 908.379,108.421 903.383,110.92 C898.381,113.423 894.233,116.77 890.933,120.97 C887.633,125.17 885.181,130.022 883.582,135.52 C881.979,141.024 881.183,146.77 881.183,152.77 L881.183,227.47 L852.983,227.47 L852.983,115.87 C852.982,112.073 852.878,107.17 852.682,101.17 L852.682,101.17 Z" id="Shape" fill="#03A9F4"></path>
                        <path d="M1066.585,155.17 L1066.585,159.97 C1066.585,161.573 1066.481,163.172 1066.285,164.77 L953.185,164.77 C953.382,170.733 954.732,176.344 957.235,181.603 C959.734,186.868 963.086,191.438 967.285,195.309 C971.485,199.181 976.332,202.209 981.836,204.393 C987.334,206.579 993.184,207.67 999.386,207.67 C1008.986,207.67 1017.282,205.57 1024.285,201.369 C1031.284,197.17 1036.782,192.07 1040.785,186.07 L1060.586,201.969 C1052.982,212.047 1044.034,219.468 1033.735,224.23 C1023.432,228.988 1011.985,231.369 999.385,231.369 C988.585,231.369 978.581,229.57 969.385,225.97 C960.183,222.369 952.284,217.322 945.685,210.821 C939.085,204.323 933.882,196.471 930.085,187.27 C926.283,178.073 924.385,167.874 924.385,156.67 C924.385,145.673 926.237,135.52 929.945,126.22 C933.652,116.92 938.813,108.97 945.427,102.37 C952.041,95.77 959.86,90.623 968.878,86.92 C977.898,83.221 987.614,81.37 998.039,81.37 C1008.46,81.37 1017.929,83.072 1026.45,86.47 C1034.968,89.873 1042.181,94.772 1048.097,101.17 C1054.007,107.573 1058.569,115.321 1061.775,124.42 C1064.982,133.523 1066.585,143.769 1066.585,155.17 L1066.585,155.17 Z M1037.785,143.769 C1037.584,138.172 1036.633,132.922 1034.935,128.019 C1033.234,123.121 1030.735,118.869 1027.435,115.269 C1024.135,111.669 1020.034,108.819 1015.135,106.719 C1010.232,104.619 1004.485,103.569 997.885,103.569 C991.885,103.569 986.232,104.619 980.935,106.719 C975.633,108.819 971.035,111.669 967.135,115.269 C963.235,118.869 960.033,123.121 957.534,128.019 C955.031,132.922 953.583,138.172 953.184,143.769 L1037.785,143.769 L1037.785,143.769 Z" id="Shape" fill="#03A9F4"></path>
                    </g>
                </g>
                <g id="Layer_2" transform="translate(733.000000, 118.000000)" fill="#FF5252" sketch:type="MSShapeGroup">
                    <path d="M0.272,0.091 L67.533,38.913 L0.272,77.734 L0.272,0.091 L0.272,0.091 Z" id="Shape"></path>
                </g>
            </g>
        </g>
    </g>
</svg>