<?xml version="1.0" encoding="UTF-8" standalone="no"?>
<svg width="1690px" height="260px" viewBox="0 0 1690 260" version="1.1" xmlns="http://www.w3.org/2000/svg" xmlns:xlink="http://www.w3.org/1999/xlink" xmlns:sketch="http://www.bohemiancoding.com/sketch/ns">
    <!-- Generator: Sketch 3.5.1 (25234) - http://www.bohemiancoding.com/sketch -->
    <title>musikore.com Logo</title>
    <desc>Created with Sketch.</desc>
    <defs></defs>
    <g id="musikore.com-Logo" stroke="none" stroke-width="1" fill="none" fill-rule="evenodd" sketch:type="MSPage">
        <g sketch:type="MSArtboardGroup" id="musikore_com-01">
            <g sketch:type="MSLayerGroup" transform="translate(23.000000, 14.000000)">
                <g id="Layer_1" sketch:type="MSShapeGroup">
                    <g id="Group">
                        <path d="M46.1,89.3 C54,84 63.3,81.3 74.2,81.3 C83.8,81.3 92.4,83.5 100.1,87.9 C107.8,92.3 113.8,99.6 118.2,109.8 C123,100.6 129.7,93.6 138.3,88.7 C146.9,83.8 156.3,81.3 166.5,81.3 C175.7,81.3 183.6,82.9 190.2,85.9 C196.8,89 202.3,93.2 206.7,98.4 C211.1,103.6 214.4,109.7 216.5,116.7 C218.6,123.7 219.7,131.2 219.7,139.2 L219.7,227.4 L191.5,227.4 L191.5,148.5 C191.5,142.7 191,137.2 190,132 C189,126.8 187.3,122.2 184.9,118.2 C182.5,114.2 179.3,111 175.3,108.6 C171.3,106.2 166.2,105 160,105 C153.6,105 148.1,106.4 143.5,109 C138.9,111.7 135.1,115.2 132.3,119.5 C129.4,123.8 127.3,128.6 126,134.1 C124.7,139.5 124,145 124,150.6 L124,227.4 L95.8,227.4 L95.8,142.8 C95.8,137.2 95.3,132.1 94.3,127.5 C93.3,122.9 91.6,118.9 89.2,115.6 C86.8,112.3 83.7,109.7 79.9,107.8 C76.1,105.9 71.4,104.9 65.8,104.9 C55.4,104.9 46.8,109.2 39.9,117.7 C33,126.2 29.5,137.6 29.5,151.7 L29.5,227.3 L1.3,227.3 L1.3,115.9 C1.3,112.1 1.2,107.2 1,101.2 C0.8,95.2 0.5,89.9 0.1,85.3 L26.8,85.3 C27.2,88.9 27.5,93 27.7,97.5 C27.9,102 28,105.7 28,108.7 L28.9,108.7 C32.5,101.1 38.2,94.6 46.1,89.3 L46.1,89.3 Z" id="Shape" fill="#03A9F4"></path>
                        <path d="M345.1,227.5 C344.7,223.9 344.4,219.9 344.2,215.4 C344,210.9 343.9,207.2 343.9,204.2 L343.3,204.2 C339.7,211.8 333.6,218.3 325.1,223.5 C316.6,228.8 307.1,231.4 296.8,231.4 C287.6,231.4 279.6,229.9 272.9,226.9 C266.2,223.9 260.7,219.8 256.4,214.5 C252.1,209.2 248.9,203.1 246.8,196 C244.7,189 243.7,181.5 243.7,173.5 L243.7,85.3 L271.9,85.3 L271.9,163.9 C271.9,169.7 272.4,175.3 273.3,180.6 C274.2,185.9 275.9,190.6 278.3,194.6 C280.7,198.6 284,201.8 288.2,204.2 C292.4,206.6 297.8,207.8 304.4,207.8 C315.8,207.8 325,203.6 332,195 C339,186.5 342.5,175.2 342.5,160.9 L342.5,85.3 L370.7,85.3 L370.7,196.9 C370.7,200.7 370.8,205.6 371,211.6 C371.2,217.6 371.5,222.9 371.9,227.5 L345.1,227.5 L345.1,227.5 Z" id="Shape" fill="#03A9F4"></path>
                        <path d="M473.8,121.3 C470.6,116.1 466.1,111.9 460.3,108.5 C454.5,105.2 448,103.6 440.8,103.6 C437.6,103.6 434.4,104 431.2,104.6 C428,105.3 425.1,106.4 422.7,107.9 C420.2,109.4 418.2,111.3 416.7,113.6 C415.2,115.9 414.5,118.8 414.5,122.2 C414.5,128.2 417.2,132.7 422.6,135.5 C428,138.4 436.1,141.1 446.9,143.5 C453.7,145.1 460,147 465.8,149.2 C471.6,151.4 476.6,154.1 480.9,157.4 C485.2,160.7 488.5,164.7 490.9,169.2 C493.3,173.8 494.5,179.2 494.5,185.4 C494.5,193.8 492.9,200.9 489.7,206.7 C486.5,212.5 482.2,217.3 476.9,220.9 C471.6,224.6 465.5,227.3 458.8,228.9 C452,230.5 445,231.3 437.8,231.3 C427,231.3 416.4,229.2 406.2,225 C395.9,220.8 387.3,214.4 380.5,205.8 L400.6,188.7 C404.4,194.3 409.6,199 416.4,202.8 C423.1,206.6 430.4,208.5 438.5,208.5 C442.1,208.5 445.5,208.2 448.8,207.4 C452.1,206.7 455.1,205.6 457.8,204 C460.5,202.4 462.6,200.3 464.3,197.7 C465.9,195.1 466.7,191.8 466.7,187.8 C466.7,181.2 463.6,176.3 457.3,173.1 C451,169.9 441.7,166.9 429.5,164.1 C424.7,162.9 419.8,161.5 414.9,159.8 C410,158.1 405.5,155.7 401.5,152.7 C397.5,149.7 394.2,145.9 391.7,141.5 C389.2,137 387.9,131.5 387.9,124.9 C387.9,117.3 389.4,110.8 392.6,105.3 C395.7,99.8 399.7,95.3 404.7,91.8 C409.7,88.3 415.4,85.7 421.8,84 C428.2,82.3 434.8,81.4 441.6,81.4 C451.8,81.4 461.6,83.4 471.1,87.4 C480.6,91.4 487.9,97.2 493.2,104.8 L473.8,121.3 L473.8,121.3 Z" id="Shape" fill="#03A9F4"></path>
                        <path d="M540.7,34 C540.7,39.2 538.9,43.5 535.2,46.9 C531.5,50.3 527.1,52 522,52 C516.9,52 512.5,50.3 508.9,46.8 C505.3,43.3 503.5,39.1 503.5,34 C503.5,28.8 505.3,24.5 508.9,21 C512.5,17.5 516.8,15.8 522,15.8 C527.2,15.8 531.6,17.6 535.2,21 C538.9,24.4 540.7,28.8 540.7,34 L540.7,34 Z M536.2,227.5 L508,227.5 L508,85.3 L536.2,85.3 L536.2,227.5 L536.2,227.5 Z" id="Shape" fill="#03A9F4"></path>
                        <path d="M591.7,147.1 L592.6,147.1 L652.3,85.3 L690.1,85.3 L623.5,149.8 L695.8,227.5 L656.8,227.5 L592.6,153.7 L591.7,153.7 L591.7,227.5 L563.5,227.5 L563.5,0.7 L591.7,0.7 L591.7,147.1 L591.7,147.1 Z" id="Shape" fill="#FF5252"></path>
                        <path d="M836.5,156.1 C836.5,167.1 834.5,177.2 830.7,186.4 C826.8,195.6 821.4,203.6 814.5,210.3 C807.6,217 799.4,222.2 790,225.9 C780.6,229.6 770.5,231.4 759.7,231.4 C748.9,231.4 738.8,229.5 729.4,225.9 C720,222.2 711.9,217 705.1,210.3 C698.3,203.6 692.9,195.7 689,186.4 C685.1,177.2 683.2,167.1 683.2,156.1 C683.2,145.1 685.2,135.1 689,125.9 C692.9,116.8 698.2,108.9 705.1,102.3 C711.9,95.7 720,90.6 729.4,86.9 C738.8,83.2 748.9,81.3 759.7,81.3 C770.5,81.3 780.6,83.2 790,86.9 C799.4,90.6 807.5,95.7 814.5,102.3 C821.5,108.9 826.8,116.8 830.7,125.9 C834.5,135 836.5,145.1 836.5,156.1 L836.5,156.1 Z M807.1,156.2 C807.1,149.4 806,142.9 803.9,136.8 C801.8,130.6 798.7,125.2 794.7,120.5 C790.7,115.8 785.7,112.1 779.8,109.3 C773.9,106.5 767.1,105.1 759.5,105.1 C751.9,105.1 745.1,106.5 739.2,109.3 C733.3,112.1 728.3,115.8 724.3,120.5 C720.3,125.2 717.2,130.6 715.1,136.8 C713,143 711.9,149.5 711.9,156.2 C711.9,163 712.9,169.5 715.1,175.6 C717.2,181.8 720.3,187.3 724.3,192.1 C728.3,196.9 733.3,200.7 739.2,203.5 C745.1,206.3 751.9,207.7 759.5,207.7 C767.1,207.7 773.9,206.3 779.8,203.5 C785.7,200.7 790.7,196.9 794.7,192.1 C798.7,187.3 801.8,181.8 803.9,175.6 C806,169.5 807.1,163 807.1,156.2 L807.1,156.2 Z" id="Shape" fill="#03A9F4"></path>
                        <path d="M852.7,101.2 C852.5,95.2 852.2,89.9 851.8,85.3 L878.5,85.3 C878.9,88.9 879.2,93.1 879.4,97.8 C879.6,102.5 879.7,106.3 879.7,109.3 L880.6,109.3 C884.6,100.9 890.4,94.2 898.1,89.1 C905.8,84 914.4,81.5 924.1,81.5 C928.5,81.5 932.2,81.9 935.2,82.7 L934,108.8 C930,107.8 925.7,107.3 921.1,107.3 C914.3,107.3 908.4,108.6 903.4,111.1 C898.4,113.6 894.2,116.9 890.9,121.1 C887.6,125.3 885.1,130.2 883.6,135.6 C882,141.1 881.2,146.8 881.2,152.8 L881.2,227.5 L853,227.5 L853,115.9 C853,112.1 852.9,107.2 852.7,101.2 L852.7,101.2 Z" id="Shape" fill="#03A9F4"></path>
                        <path d="M1066.6,155.2 L1066.6,160 C1066.6,161.6 1066.5,163.2 1066.3,164.8 L953.2,164.8 C953.4,170.8 954.7,176.4 957.2,181.6 C959.7,186.9 963.1,191.4 967.3,195.3 C971.5,199.2 976.3,202.2 981.8,204.4 C987.3,206.6 993.1,207.7 999.3,207.7 C1008.9,207.7 1017.2,205.6 1024.2,201.4 C1031.2,197.2 1036.7,192.1 1040.7,186.1 L1060.5,202 C1052.9,212.1 1043.9,219.5 1033.6,224.3 C1023.3,229.1 1011.8,231.4 999.3,231.4 C988.5,231.4 978.5,229.6 969.3,226 C960.1,222.4 952.2,217.4 945.6,210.9 C939,204.4 933.8,196.6 930,187.3 C926.2,178.1 924.3,167.9 924.3,156.7 C924.3,145.7 926.2,135.5 929.9,126.2 C933.6,116.9 938.8,109 945.4,102.3 C952,95.6 959.8,90.6 968.9,86.9 C977.9,83.2 987.6,81.3 998.1,81.3 C1008.5,81.3 1018,83 1026.5,86.4 C1035,89.8 1042.2,94.7 1048.1,101.1 C1054,107.5 1058.6,115.3 1061.8,124.3 C1065,133.5 1066.6,143.8 1066.6,155.2 L1066.6,155.2 Z M1037.8,143.8 C1037.6,138.2 1036.6,133 1034.9,128 C1033.2,123.1 1030.7,118.9 1027.4,115.2 C1024.1,111.6 1020,108.8 1015.1,106.7 C1010.2,104.6 1004.4,103.6 997.9,103.6 C991.9,103.6 986.2,104.6 980.9,106.7 C975.6,108.8 971,111.7 967.1,115.2 C963.2,118.8 960,123.1 957.5,128 C955,132.9 953.5,138.2 953.1,143.8 L1037.8,143.8 L1037.8,143.8 Z" id="Shape" fill="#03A9F4"></path>
                        <path d="M1117.9,209.5 C1117.9,214.7 1116,219.3 1112.2,223.3 C1108.4,227.3 1103.6,229.3 1097.8,229.3 C1092.2,229.3 1087.5,227.4 1083.6,223.5 C1079.7,219.6 1077.8,215.1 1077.8,209.8 C1077.8,204.4 1079.7,199.8 1083.5,195.9 C1087.3,192 1092.1,190 1097.9,190 C1103.7,190 1108.5,191.9 1112.3,195.7 C1116,199.5 1117.9,204.1 1117.9,209.5 L1117.9,209.5 Z" id="Shape" fill="#03A9F4"></path>
                        <path d="M1238.2,121.3 C1235.2,116.7 1230.7,112.9 1224.7,109.8 C1218.7,106.7 1212.3,105.2 1205.5,105.2 C1198.1,105.2 1191.5,106.6 1185.8,109.4 C1180.1,112.2 1175.2,116 1171.3,120.6 C1167.3,125.3 1164.3,130.8 1162.1,136.9 C1160,143.1 1159,149.6 1159,156.4 C1159,163.2 1160,169.7 1162.1,175.9 C1164.2,182.1 1167.2,187.6 1171.3,192.3 C1175.3,197 1180.2,200.8 1186,203.5 C1191.8,206.3 1198.4,207.7 1205.8,207.7 C1213,207.7 1219.5,206.3 1225.5,203.5 C1231.4,200.7 1236.2,196.9 1240,192.1 L1258.9,209.2 C1252.9,216.2 1245.4,221.6 1236.4,225.5 C1227.4,229.4 1217.2,231.3 1205.8,231.3 C1194.8,231.3 1184.6,229.5 1175.3,225.9 C1166,222.3 1157.9,217.3 1151.2,210.8 C1144.4,204.3 1139,196.5 1135.1,187.2 C1131.2,178 1129.3,167.7 1129.3,156.3 C1129.3,145.1 1131.2,134.9 1135,125.7 C1138.8,116.5 1144.1,108.6 1150.9,102 C1157.7,95.4 1165.8,90.3 1175.1,86.7 C1184.4,83.1 1194.4,81.3 1205.3,81.3 C1215.3,81.3 1225.2,83.3 1235.1,87.3 C1245,91.3 1252.8,97.1 1258.6,104.7 L1238.2,121.3 L1238.2,121.3 Z" id="Shape" fill="#03A9F4"></path>
                        <path d="M1408.3,156.1 C1408.3,167.1 1406.3,177.2 1402.5,186.4 C1398.6,195.6 1393.2,203.6 1386.3,210.3 C1379.4,217 1371.2,222.2 1361.8,225.9 C1352.4,229.6 1342.3,231.4 1331.5,231.4 C1320.7,231.4 1310.6,229.5 1301.2,225.9 C1291.8,222.2 1283.7,217 1276.9,210.3 C1270.1,203.6 1264.7,195.7 1260.8,186.4 C1256.9,177.2 1255,167.1 1255,156.1 C1255,145.1 1257,135.1 1260.8,125.9 C1264.7,116.8 1270,108.9 1276.9,102.3 C1283.7,95.7 1291.8,90.6 1301.2,86.9 C1310.6,83.2 1320.7,81.3 1331.5,81.3 C1342.3,81.3 1352.4,83.2 1361.8,86.9 C1371.2,90.6 1379.3,95.7 1386.3,102.3 C1393.3,108.9 1398.6,116.8 1402.5,125.9 C1406.3,135 1408.3,145.1 1408.3,156.1 L1408.3,156.1 Z M1378.9,156.2 C1378.9,149.4 1377.8,142.9 1375.7,136.8 C1373.6,130.6 1370.5,125.2 1366.5,120.5 C1362.5,115.8 1357.5,112.1 1351.6,109.3 C1345.7,106.5 1338.9,105.1 1331.3,105.1 C1323.7,105.1 1316.9,106.5 1311,109.3 C1305.1,112.1 1300.1,115.8 1296.1,120.5 C1292.1,125.2 1289,130.6 1286.9,136.8 C1284.8,143 1283.7,149.5 1283.7,156.2 C1283.7,163 1284.7,169.5 1286.9,175.6 C1289,181.8 1292.1,187.3 1296.1,192.1 C1300.1,196.9 1305.1,200.7 1311,203.5 C1316.9,206.3 1323.7,207.7 1331.3,207.7 C1338.9,207.7 1345.7,206.3 1351.6,203.5 C1357.5,200.7 1362.5,196.9 1366.5,192.1 C1370.5,187.3 1373.6,181.8 1375.7,175.6 C1377.8,169.5 1378.9,163 1378.9,156.2 L1378.9,156.2 Z" id="Shape" fill="#03A9F4"></path>
                        <path d="M1469.6,89.3 C1477.5,84 1486.8,81.3 1497.6,81.3 C1507.2,81.3 1515.8,83.5 1523.6,87.9 C1531.3,92.3 1537.3,99.6 1541.7,109.8 C1546.5,100.6 1553.2,93.6 1561.8,88.7 C1570.4,83.8 1579.8,81.3 1590,81.3 C1599.2,81.3 1607.1,82.9 1613.7,85.9 C1620.3,89 1625.8,93.2 1630.2,98.4 C1634.6,103.6 1637.9,109.7 1640,116.7 C1642.1,123.7 1643.2,131.2 1643.2,139.2 L1643.2,227.4 L1615,227.4 L1615,148.5 C1615,142.7 1614.5,137.2 1613.5,132 C1612.5,126.8 1610.8,122.2 1608.4,118.2 C1606,114.2 1602.8,111 1598.8,108.6 C1594.8,106.2 1589.7,105 1583.5,105 C1577.1,105 1571.6,106.4 1567,109 C1562.4,111.7 1558.6,115.2 1555.8,119.5 C1552.9,123.8 1550.8,128.6 1549.5,134.1 C1548.2,139.5 1547.5,145 1547.5,150.6 L1547.5,227.4 L1519.3,227.4 L1519.3,142.8 C1519.3,137.2 1518.8,132.1 1517.8,127.5 C1516.8,122.9 1515.1,118.9 1512.7,115.6 C1510.3,112.3 1507.2,109.7 1503.4,107.8 C1499.6,105.9 1494.9,104.9 1489.3,104.9 C1478.9,104.9 1470.3,109.2 1463.3,117.7 C1456.4,126.2 1453,137.6 1453,151.7 L1453,227.3 L1424.8,227.3 L1424.8,115.9 C1424.8,112.1 1424.7,107.2 1424.5,101.2 C1424.3,95.2 1424,89.9 1423.6,85.3 L1450.3,85.3 C1450.7,88.9 1451,93 1451.2,97.5 C1451.4,102 1451.5,105.7 1451.5,108.7 L1452.4,108.7 C1456,101.1 1461.7,94.6 1469.6,89.3 L1469.6,89.3 Z" id="Shape" fill="#03A9F4"></path>
                    </g>
                </g>
                <g id="Layer_2" transform="translate(733.000000, 118.000000)" fill="#FF5252" sketch:type="MSShapeGroup">
                    <path d="M0.3,0.1 L67.6,38.9 L0.3,77.7 L0.3,0.1 L0.3,0.1 Z" id="Shape"></path>
                </g>
            </g>
        </g>
    </g>
</svg>